<mxfile host="65bd71144e">
    <diagram id="p4cZ2v9lCHGDx8Y6ro6U" name="第 1 页">
        <mxGraphModel dx="765" dy="569" grid="1" gridSize="10" guides="1" tooltips="1" connect="1" arrows="1" fold="1" page="1" pageScale="1" pageWidth="827" pageHeight="1169" math="0" shadow="0">
            <root>
                <mxCell id="0"/>
                <mxCell id="1" parent="0"/>
                <mxCell id="5" style="edgeStyle=none;html=1;exitX=1;exitY=0.5;exitDx=0;exitDy=0;entryX=0;entryY=0.5;entryDx=0;entryDy=0;fontSize=11;sketch=1;" parent="1" source="2" target="4" edge="1">
                    <mxGeometry relative="1" as="geometry"/>
                </mxCell>
                <mxCell id="2" value="JDK5以前" style="rounded=0;whiteSpace=wrap;html=1;fillColor=#ffe6cc;strokeColor=#d79b00;comic=1;" parent="1" vertex="1">
                    <mxGeometry x="40" y="90" width="70" height="30" as="geometry"/>
                </mxCell>
                <mxCell id="3" value="自动拆装箱" style="rounded=0;whiteSpace=wrap;html=1;fillColor=#f8cecc;strokeColor=#b85450;comic=1;" parent="1" vertex="1">
                    <mxGeometry x="374" y="20" width="79" height="30" as="geometry"/>
                </mxCell>
                <mxCell id="4" value="&lt;pre style=&quot;background-color: rgb(255 , 255 , 255) ; color: rgb(8 , 8 , 8) ; font-family: &amp;#34;consolas&amp;#34; , monospace&quot;&gt;&lt;pre style=&quot;font-family: &amp;#34;consolas&amp;#34; , monospace&quot;&gt;&lt;span style=&quot;color: #0033b3&quot;&gt;public static void &lt;/span&gt;&lt;span style=&quot;color: #795e26&quot;&gt;main&lt;/span&gt;(&lt;span style=&quot;color: #066555&quot;&gt;String&lt;/span&gt;[] args) {&lt;br&gt;    &lt;span style=&quot;color: #066555&quot;&gt;Integer &lt;/span&gt;&lt;span style=&quot;color: #000000&quot;&gt;i &lt;/span&gt;= &lt;span style=&quot;color: #066555&quot;&gt;Integer&lt;/span&gt;.&lt;span style=&quot;font-style: italic&quot;&gt;valueOf&lt;/span&gt;(&lt;span style=&quot;color: #1750eb&quot;&gt;10&lt;/span&gt;);&lt;br&gt;    &lt;span style=&quot;color: #0033b3&quot;&gt;int &lt;/span&gt;&lt;span style=&quot;color: #000000&quot;&gt;j &lt;/span&gt;= &lt;span style=&quot;color: #000000&quot;&gt;i&lt;/span&gt;.&lt;span style=&quot;color: #795e26&quot;&gt;intValue&lt;/span&gt;();&lt;br&gt;}&lt;/pre&gt;&lt;/pre&gt;" style="rounded=0;whiteSpace=wrap;html=1;fillColor=#ffe6cc;strokeColor=#d79b00;comic=1;align=left;" parent="1" vertex="1">
                    <mxGeometry x="150" y="75" width="270" height="60" as="geometry"/>
                </mxCell>
                <mxCell id="8" style="edgeStyle=none;sketch=1;html=1;exitX=1;exitY=0.5;exitDx=0;exitDy=0;entryX=0;entryY=0.5;entryDx=0;entryDy=0;fontSize=11;" parent="1" source="6" target="7" edge="1">
                    <mxGeometry relative="1" as="geometry"/>
                </mxCell>
                <mxCell id="6" value="JDK5以后" style="rounded=0;whiteSpace=wrap;html=1;fillColor=#ffe6cc;strokeColor=#d79b00;comic=1;" parent="1" vertex="1">
                    <mxGeometry x="40" y="210" width="70" height="30" as="geometry"/>
                </mxCell>
                <mxCell id="11" value="&lt;font style=&quot;font-size: 12px&quot;&gt;编译后javap反编译&lt;/font&gt;" style="edgeStyle=none;sketch=1;html=1;exitX=0.5;exitY=1;exitDx=0;exitDy=0;entryX=0.5;entryY=0;entryDx=0;entryDy=0;fontSize=11;" parent="1" source="7" target="10" edge="1">
                    <mxGeometry relative="1" as="geometry"/>
                </mxCell>
                <mxCell id="7" value="&lt;pre style=&quot;background-color: rgb(255 , 255 , 255) ; color: rgb(8 , 8 , 8) ; font-family: &amp;#34;consolas&amp;#34; , monospace&quot;&gt;&lt;span style=&quot;color: #0033b3&quot;&gt;public static void &lt;/span&gt;&lt;span style=&quot;color: #795e26&quot;&gt;main&lt;/span&gt;(&lt;span style=&quot;color: #066555&quot;&gt;String&lt;/span&gt;[] args) {&lt;br&gt;    &lt;span style=&quot;color: #066555&quot;&gt;Integer &lt;/span&gt;&lt;span style=&quot;color: #000000&quot;&gt;i &lt;/span&gt;= &lt;span style=&quot;color: #1750eb&quot;&gt;10&lt;/span&gt;;&lt;br&gt;    &lt;span style=&quot;color: #0033b3&quot;&gt;int &lt;/span&gt;&lt;span style=&quot;color: #000000&quot;&gt;j &lt;/span&gt;= &lt;span style=&quot;color: #000000&quot;&gt;i&lt;/span&gt;;&lt;br&gt;}&lt;/pre&gt;" style="rounded=0;whiteSpace=wrap;html=1;fillColor=#ffe6cc;strokeColor=#d79b00;comic=1;align=left;" parent="1" vertex="1">
                    <mxGeometry x="150" y="195" width="270" height="60" as="geometry"/>
                </mxCell>
                <mxCell id="10" value="" style="shape=image;imageAspect=0;aspect=fixed;verticalLabelPosition=bottom;verticalAlign=top;comic=1;fontSize=11;image=https://codereaper-image-bed.oss-cn-shenzhen.aliyuncs.com/img/image-20220825000832903.png;imageBorder=default;" parent="1" vertex="1">
                    <mxGeometry x="20" y="300" width="590.32" height="175.96" as="geometry"/>
                </mxCell>
                <mxCell id="13" value="可以看到编译成字节码文件后，还是&lt;b&gt;调用了valueOf和intValue方法&lt;/b&gt;，在代码基本不需要进行手动转化只是&lt;b&gt;javac提供了语法糖&lt;/b&gt;" style="rounded=0;whiteSpace=wrap;html=1;fillColor=#ffe6cc;strokeColor=#d79b00;comic=1;align=left;sketch=1;" parent="1" vertex="1">
                    <mxGeometry x="620" y="300" width="190" height="70" as="geometry"/>
                </mxCell>
            </root>
        </mxGraphModel>
    </diagram>
</mxfile>